<?xml version="1.0" encoding="UTF-8"?>
<svg height="128px" viewBox="0 0 128 128" width="128px" xmlns="http://www.w3.org/2000/svg">
    <path d="m 64 8 c 30.929688 0 56 25.070312 56 56 v 2 c 0 30.929688 -25.070312 56 -56 56 s -56 -25.070312 -56 -56 v -2 c 0 -30.929688 25.070312 -56 56 -56 z m 0 0" fill="#d5d3cf"/>
    <path d="m 124 64 c 0 33.136719 -26.863281 60 -60 60 s -60 -26.863281 -60 -60 s 26.863281 -60 60 -60 s 60 26.863281 60 60 z m 0 0" fill="#424048"/>
    <path d="m 118 64 c 0 29.824219 -24.175781 54 -54 54 s -54 -24.175781 -54 -54 s 24.175781 -54 54 -54 s 54 24.175781 54 54 z m 0 0" fill="#424048"/>
    <path d="m 64.003906 10.003906 c 19.289063 0 37.113282 10.292969 46.757813 27 c 9.648437 16.703125 9.648437 37.289063 0 53.992188 c -9.644531 16.707031 -27.46875 27 -46.757813 27 z m 0 0" fill="#f6f5f4"/>
    <path d="m 45.414062 64 c 0 -10.066406 8.160157 -18.222656 18.226563 -18.222656 c 10.0625 0 18.222656 8.15625 18.222656 18.222656 s -8.160156 18.222656 -18.222656 18.222656 c -10.066406 0 -18.226563 -8.15625 -18.226563 -18.222656 z m 0 0" fill="#424048"/>
    <path d="m 63.730469 82.40625 c -6.578125 0 -12.652344 -3.507812 -15.941407 -9.203125 c -3.289062 -5.695313 -3.289062 -12.710937 0 -18.40625 c 3.289063 -5.695313 9.363282 -9.203125 15.941407 -9.203125 z m 0 0" fill="#f6f5f4"/>
    <path d="m 116.820313 64 c 0 29.171875 -23.648438 52.820312 -52.820313 52.820312 s -52.820312 -23.648437 -52.820312 -52.820312 s 23.648437 -52.820313 52.820312 -52.820313 s 52.820313 23.648438 52.820313 52.820313 z m 0 0" fill="none" stroke="#000000" stroke-opacity="0.141176" stroke-width="2.35836"/>
</svg>
